<svg xmlns="http://www.w3.org/2000/svg" width="1240" height="1240"><path d="M5.02 1.283c-1.364.691-3.046 2.373-3.737 3.737C.278 7.004.074 130.232.263 621.337L.5 1235.173l2.806 2.414L6.112 1240h614.01c437.921 0 614.588-.31 616.028-1.08 5.177-2.771 4.85 38.976 4.85-619.942V6.892l-2.987-3.196L1235.027.5 621.263.263C130.217.074 7.004.278 5.02 1.283M.497 620c0 337.425.114 475.462.253 306.75.139-168.713.139-444.788 0-613.5C.611 144.537.497 282.575.497 620m17.558-427.75l.056 174.25 82.28 164.42c45.254 90.431 82.535 164.006 82.847 163.5.312-.506 36.653-91.145 80.758-201.42 44.105-110.275 80.712-201.136 81.348-201.913 2.304-2.815 9.604-5.234 15.032-4.983l5.27.244 7.717-8.076c15.504-16.228 34.712-26.58 57.192-30.823 11.698-2.207 32.471-1.538 43.62 1.405 29.73 7.848 54.138 27.579 67.598 54.646 8.093 16.274 10.736 28.139 10.581 47.5-.096 12.089-.54 16.114-2.666 24.206-5.041 19.185-14.878 35.96-29.026 49.497-13.609 13.021-28.108 21.168-46.162 25.936-8.372 2.211-12.288 2.659-24.049 2.751l-14.05.11 46.337 115.842c25.485 63.713 47.055 116.939 47.934 118.28 1.494 2.28 1.677 2.323 2.817.658.67-.979 17.554-50.83 37.52-110.78 19.966-59.95 37.16-111.025 38.21-113.5 2.696-6.354 6.444-10 10.281-10 3.546 0 7.685 3.68 9.48 8.431.609 1.611 18.428 72.206 39.597 156.877s38.94 154.79 39.491 155.82c.551 1.029 1.43 1.872 1.952 1.872s16.468-31.018 35.437-68.928c37.447-74.842 35.833-72.201 46.165-75.555 6.057-1.967 11.71-.947 15.093 2.722 1.147 1.243 16.961 32.035 35.143 68.425 20.748 41.525 33.902 66.755 35.323 67.75 3.328 2.331 5.726 1.961 6.875-1.062.554-1.456 10.428-35.768 21.943-76.25 11.514-40.481 21.378-74.952 21.918-76.602.54-1.65 27.557-96.063 60.037-209.808 32.48-113.744 59.681-208.02 60.448-209.502 4.333-8.379 12.443-8.724 17.128-.728 1.432 2.442 37.188 108.075 79.458 234.74l76.854 230.298.079-322.25L1222 18H18l.055 174.25m1038.134 11.784c-2.031 5.408-117.345 410.143-116.964 410.525.415.415 249.977-15.688 250.629-16.171.461-.342-130.596-393.428-131.813-395.354-.751-1.189-1.101-1.001-1.852 1m-619.717 50.008c-14.738 1.927-27.939 6.877-40.937 15.35C387.107 274.886 372 289.166 372 291.64c0 2.704 60.175 151.894 61.756 153.11 2.311 1.777 25.261 1.64 34.022-.203 35.845-7.54 62.956-32.544 73.867-68.126 2.509-8.181 2.741-10.332 2.795-25.921.064-18.412-.902-24.049-6.465-37.724-16.099-39.577-58.846-64.312-101.503-58.734m-80.149 41.654c-1.198.233-2.618.96-3.157 1.614-1.647 2.003-104.444 259.746-103.837 260.352.529.529 205.742-28.399 206.444-29.102.457-.457-91.745-230.798-92.989-232.31-1.025-1.246-2.331-1.358-6.461-.554M18.055 805.251L18 1223.002l602.25-.251 602.25-.251.252-262.994.252-262.994-14.639-44.006c-8.051-24.203-14.777-44.168-14.945-44.366-.168-.198-22.044 1.075-48.613 2.828s-84.185 5.529-128.037 8.39c-43.851 2.86-80.139 5.638-80.639 6.172-.501.533-9.752 32.02-20.559 69.97-10.807 37.95-20.544 71.741-21.639 75.09-3.857 11.806-11.22 14.963-21.211 9.098l-4.778-2.805-33.973-67.941c-37.622-75.238-34.334-70.121-42.548-66.204-3.477 1.658-5.223 4.892-38 70.4-23.811 47.591-35.182 69.314-37.051 70.784-5.954 4.684-11.908 3.441-15.851-3.309-1.647-2.819-8.365-27.963-21.354-79.922-10.423-41.695-19.113-75.956-19.309-76.135-.507-.463-89.1-15.659-89.365-15.328-.121.149-6.397 18.846-13.948 41.548-11.848 35.622-14.178 41.753-17.005 44.75-4.684 4.967-9.389 4.877-14.481-.276-3.268-3.306-7.293-12.739-34.029-79.75-16.677-41.8-30.633-76.354-31.013-76.787-.38-.432-49.096 6.093-108.258 14.5L244.192 568.5l-27.762 69.417-27.761 69.416 87.166 174.334C323.776 977.551 363 1056.666 363 1057.478c0 2.052-4.358 4.706-6.425 3.912-1.032-.396-68.259-133.704-170.085-337.272L18.111 387.5l-.056 417.751m599.691-337.172c-3.013 7.241-43.928 131.072-43.462 131.539.791.791 81.908 14.523 82.47 13.961.595-.595-35.502-145.554-36.747-147.567-.612-.991-1.219-.436-2.261 2.067" fill="undefined" fill-rule="evenodd"/></svg>